<mxfile host="app.diagrams.net" modified="2021-02-24T07:24:57.100Z" agent="5.0 (Windows)" etag="Ce0yy0MGPQaQYafsMtgJ" version="14.2.3" type="github" pages="3">
  <diagram id="TBr_1xBakyUmBj9jainV" name="W Queue">
    <mxGraphModel dx="-979" dy="490" grid="1" gridSize="10" guides="1" tooltips="1" connect="1" arrows="1" fold="1" page="1" pageScale="1" pageWidth="850" pageHeight="1100" math="0" shadow="0">
      <root>
        <mxCell id="0" />
        <mxCell id="1" parent="0" />
        <mxCell id="RwQurVZFuCtBndpSfasE-8" value="&lt;font face=&quot;Times New Roman&quot;&gt;&lt;b&gt;wlast&lt;/b&gt;&lt;/font&gt;" style="text;html=1;strokeColor=none;fillColor=none;align=center;verticalAlign=middle;whiteSpace=wrap;rounded=0;" vertex="1" parent="1">
          <mxGeometry x="1900" y="380" width="40" height="20" as="geometry" />
        </mxCell>
        <mxCell id="RwQurVZFuCtBndpSfasE-9" value="&lt;font face=&quot;Times New Roman&quot;&gt;&lt;b&gt;wque_push&lt;/b&gt;&lt;/font&gt;" style="text;html=1;strokeColor=none;fillColor=none;align=center;verticalAlign=middle;whiteSpace=wrap;rounded=0;rotation=0;" vertex="1" parent="1">
          <mxGeometry x="1900" y="340" width="40" height="20" as="geometry" />
        </mxCell>
        <mxCell id="RwQurVZFuCtBndpSfasE-10" value="&lt;font face=&quot;Times New Roman&quot;&gt;&lt;b&gt;wque_in&lt;/b&gt;&lt;/font&gt;" style="text;html=1;strokeColor=none;fillColor=none;align=center;verticalAlign=middle;whiteSpace=wrap;rounded=0;" vertex="1" parent="1">
          <mxGeometry x="1900" y="300" width="40" height="20" as="geometry" />
        </mxCell>
        <mxCell id="RwQurVZFuCtBndpSfasE-11" value="&lt;font face=&quot;Times New Roman&quot;&gt;&lt;b&gt;wque_out&lt;/b&gt;&lt;/font&gt;" style="text;html=1;strokeColor=none;fillColor=none;align=center;verticalAlign=middle;whiteSpace=wrap;rounded=0;" vertex="1" parent="1">
          <mxGeometry x="2100" y="302.25" width="40" height="15.5" as="geometry" />
        </mxCell>
        <mxCell id="RwQurVZFuCtBndpSfasE-12" value="&lt;font face=&quot;Times New Roman&quot;&gt;&lt;b&gt;wque_full&lt;/b&gt;&lt;/font&gt;" style="text;html=1;strokeColor=none;fillColor=none;align=center;verticalAlign=middle;whiteSpace=wrap;rounded=0;rotation=0;" vertex="1" parent="1">
          <mxGeometry x="2100" y="340" width="40" height="20" as="geometry" />
        </mxCell>
        <mxCell id="RwQurVZFuCtBndpSfasE-13" value="&lt;b&gt;&lt;font face=&quot;Times New Roman&quot;&gt;W Queue&lt;/font&gt;&lt;/b&gt;" style="rounded=0;whiteSpace=wrap;html=1;" vertex="1" parent="1">
          <mxGeometry x="1960" y="280" width="120" height="160" as="geometry" />
        </mxCell>
        <mxCell id="RwQurVZFuCtBndpSfasE-14" value="" style="endArrow=classic;html=1;" edge="1" parent="1">
          <mxGeometry width="50" height="50" relative="1" as="geometry">
            <mxPoint x="1880" y="320" as="sourcePoint" />
            <mxPoint x="1960" y="320" as="targetPoint" />
          </mxGeometry>
        </mxCell>
        <mxCell id="RwQurVZFuCtBndpSfasE-15" value="" style="endArrow=classic;html=1;" edge="1" parent="1">
          <mxGeometry width="50" height="50" relative="1" as="geometry">
            <mxPoint x="1880" y="359.76" as="sourcePoint" />
            <mxPoint x="1960" y="359.76" as="targetPoint" />
          </mxGeometry>
        </mxCell>
        <mxCell id="RwQurVZFuCtBndpSfasE-16" value="" style="endArrow=classic;html=1;" edge="1" parent="1">
          <mxGeometry width="50" height="50" relative="1" as="geometry">
            <mxPoint x="2080" y="320" as="sourcePoint" />
            <mxPoint x="2160" y="320" as="targetPoint" />
          </mxGeometry>
        </mxCell>
        <mxCell id="RwQurVZFuCtBndpSfasE-17" value="" style="endArrow=classic;html=1;" edge="1" parent="1">
          <mxGeometry width="50" height="50" relative="1" as="geometry">
            <mxPoint x="2080" y="359.76" as="sourcePoint" />
            <mxPoint x="2160" y="359.76" as="targetPoint" />
          </mxGeometry>
        </mxCell>
        <mxCell id="RwQurVZFuCtBndpSfasE-19" value="" style="endArrow=classic;html=1;" edge="1" parent="1">
          <mxGeometry width="50" height="50" relative="1" as="geometry">
            <mxPoint x="1880" y="400" as="sourcePoint" />
            <mxPoint x="1960" y="400" as="targetPoint" />
          </mxGeometry>
        </mxCell>
        <mxCell id="RwQurVZFuCtBndpSfasE-20" value="&lt;font face=&quot;Times New Roman&quot;&gt;&lt;b&gt;wque_empty&lt;/b&gt;&lt;/font&gt;" style="text;html=1;strokeColor=none;fillColor=none;align=center;verticalAlign=middle;whiteSpace=wrap;rounded=0;rotation=0;" vertex="1" parent="1">
          <mxGeometry x="2100" y="380" width="40" height="20" as="geometry" />
        </mxCell>
        <mxCell id="RwQurVZFuCtBndpSfasE-21" value="" style="endArrow=classic;html=1;" edge="1" parent="1">
          <mxGeometry width="50" height="50" relative="1" as="geometry">
            <mxPoint x="2080" y="399.76" as="sourcePoint" />
            <mxPoint x="2160" y="399.76" as="targetPoint" />
            <Array as="points">
              <mxPoint x="2120" y="400" />
            </Array>
          </mxGeometry>
        </mxCell>
        <mxCell id="Gfv2FVcAMzK6LW8RrY-x-1" value="&lt;h1&gt;&lt;font face=&quot;Times New Roman&quot;&gt;&lt;span style=&quot;font-weight: normal&quot;&gt;MI side&lt;/span&gt;&lt;br&gt;&lt;/font&gt;&lt;/h1&gt;&lt;p&gt;&lt;font face=&quot;Times New Roman&quot;&gt;&lt;br&gt;&lt;/font&gt;&lt;/p&gt;" style="text;html=1;strokeColor=none;fillColor=none;spacing=5;spacingTop=-20;whiteSpace=wrap;overflow=hidden;rounded=0;" vertex="1" parent="1">
          <mxGeometry x="1875" y="180" width="90" height="50" as="geometry" />
        </mxCell>
      </root>
    </mxGraphModel>
  </diagram>
  <diagram id="XX-VMx1C41AsfUtdJPJJ" name="W Router">
    <mxGraphModel dx="721" dy="490" grid="1" gridSize="10" guides="1" tooltips="1" connect="1" arrows="1" fold="1" page="1" pageScale="1" pageWidth="850" pageHeight="1100" math="0" shadow="0">
      <root>
        <mxCell id="huCI31tBpH_vJDShOK6R-0" />
        <mxCell id="huCI31tBpH_vJDShOK6R-1" parent="huCI31tBpH_vJDShOK6R-0" />
        <mxCell id="huCI31tBpH_vJDShOK6R-8" value="&lt;font face=&quot;Times New Roman&quot;&gt;&lt;b&gt;wslave_sel&lt;/b&gt;&lt;/font&gt;" style="text;html=1;strokeColor=none;fillColor=none;align=center;verticalAlign=middle;whiteSpace=wrap;rounded=0;" vertex="1" parent="huCI31tBpH_vJDShOK6R-1">
          <mxGeometry x="160" y="180" width="40" height="20" as="geometry" />
        </mxCell>
        <mxCell id="huCI31tBpH_vJDShOK6R-26" value="&lt;font face=&quot;Times New Roman&quot;&gt;&lt;b&gt;wdone&lt;/b&gt;&lt;/font&gt;" style="text;html=1;strokeColor=none;fillColor=none;align=center;verticalAlign=middle;whiteSpace=wrap;rounded=0;" vertex="1" parent="huCI31tBpH_vJDShOK6R-1">
          <mxGeometry x="160" y="140" width="40" height="20" as="geometry" />
        </mxCell>
        <mxCell id="huCI31tBpH_vJDShOK6R-27" value="&lt;font face=&quot;Times New Roman&quot;&gt;&lt;b&gt;W Router&lt;/b&gt;&lt;/font&gt;" style="rounded=0;whiteSpace=wrap;html=1;shadow=0;" vertex="1" parent="huCI31tBpH_vJDShOK6R-1">
          <mxGeometry x="240" y="80" width="120" height="290" as="geometry" />
        </mxCell>
        <mxCell id="huCI31tBpH_vJDShOK6R-28" value="" style="endArrow=classic;html=1;" edge="1" parent="huCI31tBpH_vJDShOK6R-1">
          <mxGeometry width="50" height="50" relative="1" as="geometry">
            <mxPoint x="360" y="119.43" as="sourcePoint" />
            <mxPoint x="480" y="119.43" as="targetPoint" />
          </mxGeometry>
        </mxCell>
        <mxCell id="huCI31tBpH_vJDShOK6R-29" value="&lt;b&gt;&lt;font face=&quot;Times New Roman&quot;&gt;wvalid[x:0]&lt;/font&gt;&lt;/b&gt;" style="text;html=1;strokeColor=none;fillColor=none;align=center;verticalAlign=middle;whiteSpace=wrap;rounded=0;" vertex="1" parent="huCI31tBpH_vJDShOK6R-1">
          <mxGeometry x="400" y="99.43" width="40" height="20" as="geometry" />
        </mxCell>
        <mxCell id="huCI31tBpH_vJDShOK6R-30" value="" style="endArrow=classic;html=1;shadow=0;strokeColor=#000000;fillColor=#004C99;" edge="1" parent="huCI31tBpH_vJDShOK6R-1">
          <mxGeometry width="50" height="50" relative="1" as="geometry">
            <mxPoint x="480" y="159.43" as="sourcePoint" />
            <mxPoint x="360" y="159.43" as="targetPoint" />
          </mxGeometry>
        </mxCell>
        <mxCell id="huCI31tBpH_vJDShOK6R-31" value="&lt;font face=&quot;Times New Roman&quot;&gt;&lt;b&gt;wgrant[x:0]&lt;/b&gt;&lt;/font&gt;" style="text;html=1;strokeColor=none;fillColor=none;align=center;verticalAlign=middle;whiteSpace=wrap;rounded=0;" vertex="1" parent="huCI31tBpH_vJDShOK6R-1">
          <mxGeometry x="400" y="139.43" width="40" height="20" as="geometry" />
        </mxCell>
        <mxCell id="huCI31tBpH_vJDShOK6R-32" value="" style="shape=flexArrow;endArrow=classic;html=1;shadow=1;width=33.333333333333336;endSize=7.441666666666666;" edge="1" parent="huCI31tBpH_vJDShOK6R-1">
          <mxGeometry width="50" height="50" relative="1" as="geometry">
            <mxPoint x="360" y="320" as="sourcePoint" />
            <mxPoint x="480" y="320" as="targetPoint" />
          </mxGeometry>
        </mxCell>
        <mxCell id="huCI31tBpH_vJDShOK6R-33" value="&lt;b&gt;&lt;font face=&quot;Times New Roman&quot;&gt;W Payload[x:0]&lt;/font&gt;&lt;/b&gt;" style="edgeLabel;html=1;align=center;verticalAlign=middle;resizable=0;points=[];" vertex="1" connectable="0" parent="huCI31tBpH_vJDShOK6R-32">
          <mxGeometry x="-0.0881" y="-1" relative="1" as="geometry">
            <mxPoint as="offset" />
          </mxGeometry>
        </mxCell>
        <mxCell id="huCI31tBpH_vJDShOK6R-34" value="" style="shape=flexArrow;endArrow=classic;html=1;shadow=1;width=33.333333333333336;endSize=7.441666666666666;" edge="1" parent="huCI31tBpH_vJDShOK6R-1">
          <mxGeometry width="50" height="50" relative="1" as="geometry">
            <mxPoint x="120" y="320" as="sourcePoint" />
            <mxPoint x="240" y="320" as="targetPoint" />
          </mxGeometry>
        </mxCell>
        <mxCell id="huCI31tBpH_vJDShOK6R-35" value="&lt;font face=&quot;Times New Roman&quot;&gt;&lt;b&gt;W Payload&lt;/b&gt;&lt;/font&gt;" style="edgeLabel;html=1;align=center;verticalAlign=middle;resizable=0;points=[];" vertex="1" connectable="0" parent="huCI31tBpH_vJDShOK6R-34">
          <mxGeometry x="-0.0881" y="-1" relative="1" as="geometry">
            <mxPoint as="offset" />
          </mxGeometry>
        </mxCell>
        <mxCell id="huCI31tBpH_vJDShOK6R-43" value="" style="endArrow=classic;html=1;shadow=0;strokeColor=#000000;fillColor=#004C99;" edge="1" parent="huCI31tBpH_vJDShOK6R-1">
          <mxGeometry width="50" height="50" relative="1" as="geometry">
            <mxPoint x="240" y="240" as="sourcePoint" />
            <mxPoint x="120" y="240" as="targetPoint" />
          </mxGeometry>
        </mxCell>
        <mxCell id="huCI31tBpH_vJDShOK6R-44" value="&lt;b&gt;&lt;font face=&quot;Times New Roman&quot;&gt;wready&lt;/font&gt;&lt;/b&gt;" style="text;html=1;strokeColor=none;fillColor=none;align=center;verticalAlign=middle;whiteSpace=wrap;rounded=0;" vertex="1" parent="huCI31tBpH_vJDShOK6R-1">
          <mxGeometry x="160" y="220" width="40" height="20" as="geometry" />
        </mxCell>
        <mxCell id="huCI31tBpH_vJDShOK6R-48" value="" style="endArrow=classic;html=1;" edge="1" parent="huCI31tBpH_vJDShOK6R-1">
          <mxGeometry width="50" height="50" relative="1" as="geometry">
            <mxPoint x="120" y="280" as="sourcePoint" />
            <mxPoint x="240" y="280" as="targetPoint" />
          </mxGeometry>
        </mxCell>
        <mxCell id="huCI31tBpH_vJDShOK6R-49" value="&lt;b&gt;&lt;font face=&quot;Times New Roman&quot;&gt;wvalid&lt;/font&gt;&lt;/b&gt;" style="text;html=1;strokeColor=none;fillColor=none;align=center;verticalAlign=middle;whiteSpace=wrap;rounded=0;" vertex="1" parent="huCI31tBpH_vJDShOK6R-1">
          <mxGeometry x="160" y="260" width="40" height="20" as="geometry" />
        </mxCell>
        <mxCell id="huCI31tBpH_vJDShOK6R-50" value="&lt;h1&gt;&lt;font face=&quot;Times New Roman&quot;&gt;&lt;span style=&quot;font-weight: normal&quot;&gt;SI side&lt;/span&gt;&lt;br&gt;&lt;/font&gt;&lt;/h1&gt;&lt;p&gt;&lt;font face=&quot;Times New Roman&quot;&gt;&lt;br&gt;&lt;/font&gt;&lt;/p&gt;" style="text;html=1;strokeColor=none;fillColor=none;spacing=5;spacingTop=-20;whiteSpace=wrap;overflow=hidden;rounded=0;" vertex="1" parent="huCI31tBpH_vJDShOK6R-1">
          <mxGeometry x="40" y="40" width="90" height="50" as="geometry" />
        </mxCell>
        <mxCell id="AijP0UU5MeEYPjKMqwTR-0" value="" style="endArrow=classic;html=1;" edge="1" parent="huCI31tBpH_vJDShOK6R-1">
          <mxGeometry width="50" height="50" relative="1" as="geometry">
            <mxPoint x="120" y="200" as="sourcePoint" />
            <mxPoint x="240" y="200" as="targetPoint" />
          </mxGeometry>
        </mxCell>
        <mxCell id="AijP0UU5MeEYPjKMqwTR-1" value="" style="endArrow=classic;html=1;shadow=0;strokeColor=#000000;fillColor=#004C99;" edge="1" parent="huCI31tBpH_vJDShOK6R-1">
          <mxGeometry width="50" height="50" relative="1" as="geometry">
            <mxPoint x="240" y="160" as="sourcePoint" />
            <mxPoint x="120" y="160" as="targetPoint" />
          </mxGeometry>
        </mxCell>
        <mxCell id="AijP0UU5MeEYPjKMqwTR-2" value="&lt;b&gt;&lt;font face=&quot;Times New Roman&quot;&gt;wrouter_enable&lt;/font&gt;&lt;/b&gt;" style="text;html=1;strokeColor=none;fillColor=none;align=center;verticalAlign=middle;whiteSpace=wrap;rounded=0;" vertex="1" parent="huCI31tBpH_vJDShOK6R-1">
          <mxGeometry x="160" y="99.43" width="40" height="20" as="geometry" />
        </mxCell>
        <mxCell id="AijP0UU5MeEYPjKMqwTR-3" value="" style="endArrow=classic;html=1;" edge="1" parent="huCI31tBpH_vJDShOK6R-1">
          <mxGeometry width="50" height="50" relative="1" as="geometry">
            <mxPoint x="120" y="119.43" as="sourcePoint" />
            <mxPoint x="240" y="119.43" as="targetPoint" />
          </mxGeometry>
        </mxCell>
        <mxCell id="AijP0UU5MeEYPjKMqwTR-4" value="" style="endArrow=none;html=1;" edge="1" parent="huCI31tBpH_vJDShOK6R-1">
          <mxGeometry width="50" height="50" relative="1" as="geometry">
            <mxPoint x="240" y="760" as="sourcePoint" />
            <mxPoint x="240" y="600" as="targetPoint" />
          </mxGeometry>
        </mxCell>
        <mxCell id="AijP0UU5MeEYPjKMqwTR-5" value="" style="endArrow=none;html=1;" edge="1" parent="huCI31tBpH_vJDShOK6R-1">
          <mxGeometry width="50" height="50" relative="1" as="geometry">
            <mxPoint x="240" y="600" as="sourcePoint" />
            <mxPoint x="320" y="560" as="targetPoint" />
          </mxGeometry>
        </mxCell>
        <mxCell id="AijP0UU5MeEYPjKMqwTR-6" value="" style="endArrow=none;html=1;" edge="1" parent="huCI31tBpH_vJDShOK6R-1">
          <mxGeometry width="50" height="50" relative="1" as="geometry">
            <mxPoint x="240" y="760" as="sourcePoint" />
            <mxPoint x="320" y="800" as="targetPoint" />
          </mxGeometry>
        </mxCell>
        <mxCell id="AijP0UU5MeEYPjKMqwTR-8" value="" style="endArrow=none;html=1;" edge="1" parent="huCI31tBpH_vJDShOK6R-1">
          <mxGeometry width="50" height="50" relative="1" as="geometry">
            <mxPoint x="320" y="800" as="sourcePoint" />
            <mxPoint x="320" y="560" as="targetPoint" />
          </mxGeometry>
        </mxCell>
        <mxCell id="AijP0UU5MeEYPjKMqwTR-9" value="" style="endArrow=classic;html=1;" edge="1" parent="huCI31tBpH_vJDShOK6R-1">
          <mxGeometry width="50" height="50" relative="1" as="geometry">
            <mxPoint x="40" y="660" as="sourcePoint" />
            <mxPoint x="160" y="660" as="targetPoint" />
          </mxGeometry>
        </mxCell>
        <mxCell id="AijP0UU5MeEYPjKMqwTR-10" value="&lt;font face=&quot;Times New Roman&quot;&gt;&lt;b&gt;wslave_sel&lt;/b&gt;&lt;/font&gt;" style="text;html=1;strokeColor=none;fillColor=none;align=center;verticalAlign=middle;whiteSpace=wrap;rounded=0;" vertex="1" parent="huCI31tBpH_vJDShOK6R-1">
          <mxGeometry x="230" y="520" width="40" height="20" as="geometry" />
        </mxCell>
        <mxCell id="AijP0UU5MeEYPjKMqwTR-11" value="" style="endArrow=classic;html=1;" edge="1" parent="huCI31tBpH_vJDShOK6R-1">
          <mxGeometry width="50" height="50" relative="1" as="geometry">
            <mxPoint x="280" y="520" as="sourcePoint" />
            <mxPoint x="280" y="580" as="targetPoint" />
          </mxGeometry>
        </mxCell>
        <mxCell id="AijP0UU5MeEYPjKMqwTR-12" value="&lt;b&gt;&lt;font face=&quot;Times New Roman&quot;&gt;wrouter_enable&lt;/font&gt;&lt;/b&gt;" style="text;html=1;strokeColor=none;fillColor=none;align=center;verticalAlign=middle;whiteSpace=wrap;rounded=0;" vertex="1" parent="huCI31tBpH_vJDShOK6R-1">
          <mxGeometry x="80" y="640" width="40" height="20" as="geometry" />
        </mxCell>
        <mxCell id="AijP0UU5MeEYPjKMqwTR-13" value="" style="endArrow=classic;html=1;" edge="1" parent="huCI31tBpH_vJDShOK6R-1">
          <mxGeometry width="50" height="50" relative="1" as="geometry">
            <mxPoint x="320" y="600" as="sourcePoint" />
            <mxPoint x="440" y="600" as="targetPoint" />
          </mxGeometry>
        </mxCell>
        <mxCell id="AijP0UU5MeEYPjKMqwTR-14" value="&lt;b&gt;&lt;font face=&quot;Times New Roman&quot;&gt;wvalid[0]&lt;/font&gt;&lt;/b&gt;" style="text;html=1;strokeColor=none;fillColor=none;align=center;verticalAlign=middle;whiteSpace=wrap;rounded=0;" vertex="1" parent="huCI31tBpH_vJDShOK6R-1">
          <mxGeometry x="360" y="580" width="40" height="20" as="geometry" />
        </mxCell>
        <mxCell id="AijP0UU5MeEYPjKMqwTR-15" value="" style="endArrow=classic;html=1;" edge="1" parent="huCI31tBpH_vJDShOK6R-1">
          <mxGeometry width="50" height="50" relative="1" as="geometry">
            <mxPoint x="320" y="760" as="sourcePoint" />
            <mxPoint x="440" y="760" as="targetPoint" />
          </mxGeometry>
        </mxCell>
        <mxCell id="AijP0UU5MeEYPjKMqwTR-16" value="&lt;b&gt;&lt;font face=&quot;Times New Roman&quot;&gt;wvalid[x]&lt;/font&gt;&lt;/b&gt;" style="text;html=1;strokeColor=none;fillColor=none;align=center;verticalAlign=middle;whiteSpace=wrap;rounded=0;" vertex="1" parent="huCI31tBpH_vJDShOK6R-1">
          <mxGeometry x="360" y="740" width="40" height="20" as="geometry" />
        </mxCell>
        <mxCell id="AijP0UU5MeEYPjKMqwTR-17" value="" style="endArrow=none;dashed=1;html=1;dashPattern=1 3;strokeWidth=2;" edge="1" parent="huCI31tBpH_vJDShOK6R-1">
          <mxGeometry width="50" height="50" relative="1" as="geometry">
            <mxPoint x="380" y="730" as="sourcePoint" />
            <mxPoint x="380" y="610" as="targetPoint" />
          </mxGeometry>
        </mxCell>
        <mxCell id="AijP0UU5MeEYPjKMqwTR-18" value="" style="endArrow=classic;html=1;" edge="1" parent="huCI31tBpH_vJDShOK6R-1">
          <mxGeometry width="50" height="50" relative="1" as="geometry">
            <mxPoint x="40" y="700" as="sourcePoint" />
            <mxPoint x="160" y="700" as="targetPoint" />
          </mxGeometry>
        </mxCell>
        <mxCell id="AijP0UU5MeEYPjKMqwTR-19" value="&lt;b&gt;&lt;font face=&quot;Times New Roman&quot;&gt;wvalid&lt;/font&gt;&lt;/b&gt;" style="text;html=1;strokeColor=none;fillColor=none;align=center;verticalAlign=middle;whiteSpace=wrap;rounded=0;" vertex="1" parent="huCI31tBpH_vJDShOK6R-1">
          <mxGeometry x="80" y="680" width="40" height="20" as="geometry" />
        </mxCell>
        <mxCell id="AijP0UU5MeEYPjKMqwTR-21" style="edgeStyle=orthogonalEdgeStyle;rounded=0;orthogonalLoop=1;jettySize=auto;html=1;" edge="1" parent="huCI31tBpH_vJDShOK6R-1" source="AijP0UU5MeEYPjKMqwTR-20">
          <mxGeometry relative="1" as="geometry">
            <mxPoint x="240" y="680" as="targetPoint" />
          </mxGeometry>
        </mxCell>
        <mxCell id="AijP0UU5MeEYPjKMqwTR-20" value="" style="shape=or;whiteSpace=wrap;html=1;" vertex="1" parent="huCI31tBpH_vJDShOK6R-1">
          <mxGeometry x="160" y="640" width="40" height="80" as="geometry" />
        </mxCell>
        <mxCell id="AijP0UU5MeEYPjKMqwTR-22" value="&lt;b&gt;&lt;font face=&quot;Times New Roman&quot;&gt;wvalid[0]&lt;/font&gt;&lt;/b&gt;" style="text;html=1;strokeColor=none;fillColor=none;align=center;verticalAlign=middle;whiteSpace=wrap;rounded=0;" vertex="1" parent="huCI31tBpH_vJDShOK6R-1">
          <mxGeometry x="80" y="900" width="40" height="20" as="geometry" />
        </mxCell>
        <mxCell id="AijP0UU5MeEYPjKMqwTR-24" value="" style="endArrow=none;dashed=1;html=1;dashPattern=1 3;strokeWidth=2;" edge="1" parent="huCI31tBpH_vJDShOK6R-1">
          <mxGeometry width="50" height="50" relative="1" as="geometry">
            <mxPoint x="170.00000000000003" y="1110" as="sourcePoint" />
            <mxPoint x="170.00000000000003" y="990" as="targetPoint" />
          </mxGeometry>
        </mxCell>
        <mxCell id="AijP0UU5MeEYPjKMqwTR-25" value="&lt;font face=&quot;Times New Roman&quot;&gt;&lt;b&gt;wgrant[0]&lt;/b&gt;&lt;/font&gt;" style="text;html=1;strokeColor=none;fillColor=none;align=center;verticalAlign=middle;whiteSpace=wrap;rounded=0;" vertex="1" parent="huCI31tBpH_vJDShOK6R-1">
          <mxGeometry x="80" y="940" width="40" height="20" as="geometry" />
        </mxCell>
        <mxCell id="AijP0UU5MeEYPjKMqwTR-26" value="" style="endArrow=classic;html=1;" edge="1" parent="huCI31tBpH_vJDShOK6R-1">
          <mxGeometry width="50" height="50" relative="1" as="geometry">
            <mxPoint x="40" y="920" as="sourcePoint" />
            <mxPoint x="160" y="920" as="targetPoint" />
          </mxGeometry>
        </mxCell>
        <mxCell id="AijP0UU5MeEYPjKMqwTR-28" value="" style="endArrow=classic;html=1;" edge="1" parent="huCI31tBpH_vJDShOK6R-1">
          <mxGeometry width="50" height="50" relative="1" as="geometry">
            <mxPoint x="40" y="960" as="sourcePoint" />
            <mxPoint x="160" y="960" as="targetPoint" />
          </mxGeometry>
        </mxCell>
        <mxCell id="AijP0UU5MeEYPjKMqwTR-30" style="edgeStyle=orthogonalEdgeStyle;rounded=0;orthogonalLoop=1;jettySize=auto;html=1;" edge="1" parent="huCI31tBpH_vJDShOK6R-1" source="AijP0UU5MeEYPjKMqwTR-31">
          <mxGeometry relative="1" as="geometry">
            <mxPoint x="240" y="940" as="targetPoint" />
          </mxGeometry>
        </mxCell>
        <mxCell id="AijP0UU5MeEYPjKMqwTR-31" value="" style="shape=or;whiteSpace=wrap;html=1;" vertex="1" parent="huCI31tBpH_vJDShOK6R-1">
          <mxGeometry x="160" y="900" width="40" height="80" as="geometry" />
        </mxCell>
        <mxCell id="AijP0UU5MeEYPjKMqwTR-32" value="&lt;b&gt;&lt;font face=&quot;Times New Roman&quot;&gt;wvalid[x]&lt;/font&gt;&lt;/b&gt;" style="text;html=1;strokeColor=none;fillColor=none;align=center;verticalAlign=middle;whiteSpace=wrap;rounded=0;" vertex="1" parent="huCI31tBpH_vJDShOK6R-1">
          <mxGeometry x="80" y="1120" width="40" height="20" as="geometry" />
        </mxCell>
        <mxCell id="AijP0UU5MeEYPjKMqwTR-33" value="&lt;font face=&quot;Times New Roman&quot;&gt;&lt;b&gt;wgrant[x]&lt;/b&gt;&lt;/font&gt;" style="text;html=1;strokeColor=none;fillColor=none;align=center;verticalAlign=middle;whiteSpace=wrap;rounded=0;" vertex="1" parent="huCI31tBpH_vJDShOK6R-1">
          <mxGeometry x="80" y="1160" width="40" height="20" as="geometry" />
        </mxCell>
        <mxCell id="AijP0UU5MeEYPjKMqwTR-34" value="" style="endArrow=classic;html=1;" edge="1" parent="huCI31tBpH_vJDShOK6R-1">
          <mxGeometry width="50" height="50" relative="1" as="geometry">
            <mxPoint x="40" y="1140" as="sourcePoint" />
            <mxPoint x="160" y="1140" as="targetPoint" />
          </mxGeometry>
        </mxCell>
        <mxCell id="AijP0UU5MeEYPjKMqwTR-35" value="" style="endArrow=classic;html=1;" edge="1" parent="huCI31tBpH_vJDShOK6R-1">
          <mxGeometry width="50" height="50" relative="1" as="geometry">
            <mxPoint x="40" y="1180" as="sourcePoint" />
            <mxPoint x="160" y="1180" as="targetPoint" />
          </mxGeometry>
        </mxCell>
        <mxCell id="AijP0UU5MeEYPjKMqwTR-36" style="edgeStyle=orthogonalEdgeStyle;rounded=0;orthogonalLoop=1;jettySize=auto;html=1;" edge="1" parent="huCI31tBpH_vJDShOK6R-1" source="AijP0UU5MeEYPjKMqwTR-37">
          <mxGeometry relative="1" as="geometry">
            <mxPoint x="240" y="1160" as="targetPoint" />
          </mxGeometry>
        </mxCell>
        <mxCell id="AijP0UU5MeEYPjKMqwTR-37" value="" style="shape=or;whiteSpace=wrap;html=1;" vertex="1" parent="huCI31tBpH_vJDShOK6R-1">
          <mxGeometry x="160" y="1120" width="40" height="80" as="geometry" />
        </mxCell>
        <mxCell id="AijP0UU5MeEYPjKMqwTR-39" style="edgeStyle=orthogonalEdgeStyle;rounded=0;orthogonalLoop=1;jettySize=auto;html=1;" edge="1" parent="huCI31tBpH_vJDShOK6R-1" source="AijP0UU5MeEYPjKMqwTR-38">
          <mxGeometry relative="1" as="geometry">
            <mxPoint x="400" y="1050" as="targetPoint" />
          </mxGeometry>
        </mxCell>
        <mxCell id="AijP0UU5MeEYPjKMqwTR-38" value="" style="shape=xor;whiteSpace=wrap;html=1;" vertex="1" parent="huCI31tBpH_vJDShOK6R-1">
          <mxGeometry x="240" y="920" width="50" height="260" as="geometry" />
        </mxCell>
        <mxCell id="AijP0UU5MeEYPjKMqwTR-40" value="&lt;b&gt;&lt;font face=&quot;Times New Roman&quot;&gt;wready&lt;/font&gt;&lt;/b&gt;" style="text;html=1;strokeColor=none;fillColor=none;align=center;verticalAlign=middle;whiteSpace=wrap;rounded=0;" vertex="1" parent="huCI31tBpH_vJDShOK6R-1">
          <mxGeometry x="320" y="1030" width="40" height="20" as="geometry" />
        </mxCell>
        <mxCell id="AijP0UU5MeEYPjKMqwTR-44" value="" style="endArrow=classic;html=1;" edge="1" parent="huCI31tBpH_vJDShOK6R-1">
          <mxGeometry width="50" height="50" relative="1" as="geometry">
            <mxPoint x="40" y="1320" as="sourcePoint" />
            <mxPoint x="160" y="1320" as="targetPoint" />
          </mxGeometry>
        </mxCell>
        <mxCell id="AijP0UU5MeEYPjKMqwTR-45" value="" style="endArrow=classic;html=1;" edge="1" parent="huCI31tBpH_vJDShOK6R-1">
          <mxGeometry width="50" height="50" relative="1" as="geometry">
            <mxPoint x="40" y="1360" as="sourcePoint" />
            <mxPoint x="160" y="1360" as="targetPoint" />
          </mxGeometry>
        </mxCell>
        <mxCell id="AijP0UU5MeEYPjKMqwTR-46" style="edgeStyle=orthogonalEdgeStyle;rounded=0;orthogonalLoop=1;jettySize=auto;html=1;" edge="1" parent="huCI31tBpH_vJDShOK6R-1" source="AijP0UU5MeEYPjKMqwTR-47">
          <mxGeometry relative="1" as="geometry">
            <mxPoint x="320" y="1340" as="targetPoint" />
          </mxGeometry>
        </mxCell>
        <mxCell id="AijP0UU5MeEYPjKMqwTR-47" value="" style="shape=or;whiteSpace=wrap;html=1;" vertex="1" parent="huCI31tBpH_vJDShOK6R-1">
          <mxGeometry x="160" y="1300" width="40" height="80" as="geometry" />
        </mxCell>
        <mxCell id="AijP0UU5MeEYPjKMqwTR-48" value="&lt;b&gt;&lt;font face=&quot;Times New Roman&quot;&gt;wready&lt;/font&gt;&lt;/b&gt;" style="text;html=1;strokeColor=none;fillColor=none;align=center;verticalAlign=middle;whiteSpace=wrap;rounded=0;" vertex="1" parent="huCI31tBpH_vJDShOK6R-1">
          <mxGeometry x="80" y="1300" width="40" height="20" as="geometry" />
        </mxCell>
        <mxCell id="AijP0UU5MeEYPjKMqwTR-49" value="&lt;b&gt;&lt;font face=&quot;Times New Roman&quot;&gt;wlast&lt;/font&gt;&lt;/b&gt;" style="text;html=1;strokeColor=none;fillColor=none;align=center;verticalAlign=middle;whiteSpace=wrap;rounded=0;" vertex="1" parent="huCI31tBpH_vJDShOK6R-1">
          <mxGeometry x="80" y="1340" width="40" height="20" as="geometry" />
        </mxCell>
        <mxCell id="AijP0UU5MeEYPjKMqwTR-50" value="&lt;font face=&quot;Times New Roman&quot;&gt;&lt;b&gt;wdone&lt;/b&gt;&lt;/font&gt;" style="text;html=1;strokeColor=none;fillColor=none;align=center;verticalAlign=middle;whiteSpace=wrap;rounded=0;" vertex="1" parent="huCI31tBpH_vJDShOK6R-1">
          <mxGeometry x="240" y="1320" width="40" height="20" as="geometry" />
        </mxCell>
      </root>
    </mxGraphModel>
  </diagram>
  <diagram id="agPAIoofa4TQGon7E2sZ" name="W Mux">
    <mxGraphModel dx="721" dy="490" grid="1" gridSize="10" guides="1" tooltips="1" connect="1" arrows="1" fold="1" page="1" pageScale="1" pageWidth="850" pageHeight="1100" math="0" shadow="0">
      <root>
        <mxCell id="YZWj7jQO84EJo9lFfLPc-0" />
        <mxCell id="YZWj7jQO84EJo9lFfLPc-1" parent="YZWj7jQO84EJo9lFfLPc-0" />
        <mxCell id="DFkzepR45L6L2m6qSnx3-1" value="&lt;b&gt;&lt;font face=&quot;Times New Roman&quot;&gt;wque_out&lt;/font&gt;&lt;/b&gt;" style="text;html=1;strokeColor=none;fillColor=none;align=center;verticalAlign=middle;whiteSpace=wrap;rounded=0;" vertex="1" parent="YZWj7jQO84EJo9lFfLPc-1">
          <mxGeometry x="160" y="140" width="40" height="20" as="geometry" />
        </mxCell>
        <mxCell id="DFkzepR45L6L2m6qSnx3-2" value="&lt;font face=&quot;Times New Roman&quot;&gt;&lt;b&gt;W Mux&lt;/b&gt;&lt;/font&gt;" style="rounded=0;whiteSpace=wrap;html=1;shadow=0;" vertex="1" parent="YZWj7jQO84EJo9lFfLPc-1">
          <mxGeometry x="240" y="80" width="120" height="260" as="geometry" />
        </mxCell>
        <mxCell id="DFkzepR45L6L2m6qSnx3-3" value="" style="endArrow=classic;html=1;" edge="1" parent="YZWj7jQO84EJo9lFfLPc-1">
          <mxGeometry width="50" height="50" relative="1" as="geometry">
            <mxPoint x="360" y="119.43000000000006" as="sourcePoint" />
            <mxPoint x="480" y="119.43000000000006" as="targetPoint" />
          </mxGeometry>
        </mxCell>
        <mxCell id="DFkzepR45L6L2m6qSnx3-4" value="&lt;b&gt;&lt;font face=&quot;Times New Roman&quot;&gt;wready&lt;/font&gt;&lt;/b&gt;" style="text;html=1;strokeColor=none;fillColor=none;align=center;verticalAlign=middle;whiteSpace=wrap;rounded=0;" vertex="1" parent="YZWj7jQO84EJo9lFfLPc-1">
          <mxGeometry x="400" y="140" width="40" height="20" as="geometry" />
        </mxCell>
        <mxCell id="DFkzepR45L6L2m6qSnx3-5" value="" style="endArrow=classic;html=1;shadow=0;strokeColor=#000000;fillColor=#004C99;" edge="1" parent="YZWj7jQO84EJo9lFfLPc-1">
          <mxGeometry width="50" height="50" relative="1" as="geometry">
            <mxPoint x="480" y="159.43000000000006" as="sourcePoint" />
            <mxPoint x="360" y="159.43000000000006" as="targetPoint" />
          </mxGeometry>
        </mxCell>
        <mxCell id="DFkzepR45L6L2m6qSnx3-6" value="&lt;b&gt;&lt;font face=&quot;Times New Roman&quot;&gt;wvalid&lt;/font&gt;&lt;/b&gt;" style="text;html=1;strokeColor=none;fillColor=none;align=center;verticalAlign=middle;whiteSpace=wrap;rounded=0;" vertex="1" parent="YZWj7jQO84EJo9lFfLPc-1">
          <mxGeometry x="400" y="99.43" width="40" height="20" as="geometry" />
        </mxCell>
        <mxCell id="DFkzepR45L6L2m6qSnx3-7" value="" style="shape=flexArrow;endArrow=classic;html=1;shadow=1;width=33.333333333333336;endSize=7.441666666666666;" edge="1" parent="YZWj7jQO84EJo9lFfLPc-1">
          <mxGeometry width="50" height="50" relative="1" as="geometry">
            <mxPoint x="120" y="290" as="sourcePoint" />
            <mxPoint x="240" y="290" as="targetPoint" />
          </mxGeometry>
        </mxCell>
        <mxCell id="DFkzepR45L6L2m6qSnx3-8" value="&lt;b&gt;&lt;font face=&quot;Times New Roman&quot;&gt;W Payload[x:0]&lt;/font&gt;&lt;/b&gt;" style="edgeLabel;html=1;align=center;verticalAlign=middle;resizable=0;points=[];" vertex="1" connectable="0" parent="DFkzepR45L6L2m6qSnx3-7">
          <mxGeometry x="-0.0881" y="-1" relative="1" as="geometry">
            <mxPoint as="offset" />
          </mxGeometry>
        </mxCell>
        <mxCell id="DFkzepR45L6L2m6qSnx3-9" value="" style="shape=flexArrow;endArrow=classic;html=1;shadow=1;width=33.333333333333336;endSize=7.441666666666666;" edge="1" parent="YZWj7jQO84EJo9lFfLPc-1">
          <mxGeometry width="50" height="50" relative="1" as="geometry">
            <mxPoint x="360" y="290" as="sourcePoint" />
            <mxPoint x="480" y="290" as="targetPoint" />
          </mxGeometry>
        </mxCell>
        <mxCell id="DFkzepR45L6L2m6qSnx3-10" value="&lt;font face=&quot;Times New Roman&quot;&gt;&lt;b&gt;W Payload&lt;/b&gt;&lt;/font&gt;" style="edgeLabel;html=1;align=center;verticalAlign=middle;resizable=0;points=[];" vertex="1" connectable="0" parent="DFkzepR45L6L2m6qSnx3-9">
          <mxGeometry x="-0.0881" y="-1" relative="1" as="geometry">
            <mxPoint as="offset" />
          </mxGeometry>
        </mxCell>
        <mxCell id="DFkzepR45L6L2m6qSnx3-11" value="" style="endArrow=classic;html=1;shadow=0;strokeColor=#000000;fillColor=#004C99;" edge="1" parent="YZWj7jQO84EJo9lFfLPc-1">
          <mxGeometry width="50" height="50" relative="1" as="geometry">
            <mxPoint x="240" y="200" as="sourcePoint" />
            <mxPoint x="120" y="200" as="targetPoint" />
          </mxGeometry>
        </mxCell>
        <mxCell id="DFkzepR45L6L2m6qSnx3-12" value="&lt;b&gt;&lt;font face=&quot;Times New Roman&quot;&gt;wgrant[x:0]&lt;/font&gt;&lt;/b&gt;" style="text;html=1;strokeColor=none;fillColor=none;align=center;verticalAlign=middle;whiteSpace=wrap;rounded=0;" vertex="1" parent="YZWj7jQO84EJo9lFfLPc-1">
          <mxGeometry x="160" y="180" width="40" height="20" as="geometry" />
        </mxCell>
        <mxCell id="DFkzepR45L6L2m6qSnx3-13" value="" style="endArrow=classic;html=1;" edge="1" parent="YZWj7jQO84EJo9lFfLPc-1">
          <mxGeometry width="50" height="50" relative="1" as="geometry">
            <mxPoint x="120" y="240" as="sourcePoint" />
            <mxPoint x="240" y="240" as="targetPoint" />
          </mxGeometry>
        </mxCell>
        <mxCell id="DFkzepR45L6L2m6qSnx3-14" value="&lt;b&gt;&lt;font face=&quot;Times New Roman&quot;&gt;wvalid[x:0]&lt;/font&gt;&lt;/b&gt;" style="text;html=1;strokeColor=none;fillColor=none;align=center;verticalAlign=middle;whiteSpace=wrap;rounded=0;" vertex="1" parent="YZWj7jQO84EJo9lFfLPc-1">
          <mxGeometry x="160" y="220" width="40" height="20" as="geometry" />
        </mxCell>
        <mxCell id="DFkzepR45L6L2m6qSnx3-15" value="&lt;h1&gt;&lt;font face=&quot;Times New Roman&quot;&gt;&lt;span style=&quot;font-weight: normal&quot;&gt;SI side&lt;/span&gt;&lt;br&gt;&lt;/font&gt;&lt;/h1&gt;&lt;p&gt;&lt;font face=&quot;Times New Roman&quot;&gt;&lt;br&gt;&lt;/font&gt;&lt;/p&gt;" style="text;html=1;strokeColor=none;fillColor=none;spacing=5;spacingTop=-20;whiteSpace=wrap;overflow=hidden;rounded=0;" vertex="1" parent="YZWj7jQO84EJo9lFfLPc-1">
          <mxGeometry x="40" y="40" width="90" height="50" as="geometry" />
        </mxCell>
        <mxCell id="DFkzepR45L6L2m6qSnx3-16" value="" style="endArrow=classic;html=1;" edge="1" parent="YZWj7jQO84EJo9lFfLPc-1">
          <mxGeometry width="50" height="50" relative="1" as="geometry">
            <mxPoint x="120" y="160" as="sourcePoint" />
            <mxPoint x="240" y="160" as="targetPoint" />
          </mxGeometry>
        </mxCell>
        <mxCell id="DFkzepR45L6L2m6qSnx3-18" value="&lt;b&gt;&lt;font face=&quot;Times New Roman&quot;&gt;wque_empty&lt;/font&gt;&lt;/b&gt;" style="text;html=1;strokeColor=none;fillColor=none;align=center;verticalAlign=middle;whiteSpace=wrap;rounded=0;" vertex="1" parent="YZWj7jQO84EJo9lFfLPc-1">
          <mxGeometry x="160" y="99.43" width="40" height="20" as="geometry" />
        </mxCell>
        <mxCell id="DFkzepR45L6L2m6qSnx3-19" value="" style="endArrow=classic;html=1;" edge="1" parent="YZWj7jQO84EJo9lFfLPc-1">
          <mxGeometry width="50" height="50" relative="1" as="geometry">
            <mxPoint x="120" y="119.43000000000006" as="sourcePoint" />
            <mxPoint x="240" y="119.43000000000006" as="targetPoint" />
          </mxGeometry>
        </mxCell>
        <mxCell id="F1lBZtgdxnn6Zponnhz5-0" value="" style="endArrow=none;html=1;" edge="1" parent="YZWj7jQO84EJo9lFfLPc-1">
          <mxGeometry width="50" height="50" relative="1" as="geometry">
            <mxPoint x="520" y="760" as="sourcePoint" />
            <mxPoint x="520" y="600" as="targetPoint" />
          </mxGeometry>
        </mxCell>
        <mxCell id="F1lBZtgdxnn6Zponnhz5-1" value="" style="endArrow=none;html=1;" edge="1" parent="YZWj7jQO84EJo9lFfLPc-1">
          <mxGeometry width="50" height="50" relative="1" as="geometry">
            <mxPoint x="440" y="800" as="sourcePoint" />
            <mxPoint x="520" y="760" as="targetPoint" />
          </mxGeometry>
        </mxCell>
        <mxCell id="F1lBZtgdxnn6Zponnhz5-2" value="" style="endArrow=none;html=1;" edge="1" parent="YZWj7jQO84EJo9lFfLPc-1">
          <mxGeometry width="50" height="50" relative="1" as="geometry">
            <mxPoint x="440" y="560" as="sourcePoint" />
            <mxPoint x="520" y="600" as="targetPoint" />
          </mxGeometry>
        </mxCell>
        <mxCell id="F1lBZtgdxnn6Zponnhz5-3" value="" style="endArrow=none;html=1;" edge="1" parent="YZWj7jQO84EJo9lFfLPc-1">
          <mxGeometry width="50" height="50" relative="1" as="geometry">
            <mxPoint x="439.17" y="800" as="sourcePoint" />
            <mxPoint x="439.17" y="560" as="targetPoint" />
          </mxGeometry>
        </mxCell>
        <mxCell id="F1lBZtgdxnn6Zponnhz5-4" value="" style="endArrow=classic;html=1;" edge="1" parent="YZWj7jQO84EJo9lFfLPc-1">
          <mxGeometry width="50" height="50" relative="1" as="geometry">
            <mxPoint x="40" y="660" as="sourcePoint" />
            <mxPoint x="160" y="660" as="targetPoint" />
          </mxGeometry>
        </mxCell>
        <mxCell id="F1lBZtgdxnn6Zponnhz5-6" value="" style="endArrow=classic;html=1;" edge="1" parent="YZWj7jQO84EJo9lFfLPc-1">
          <mxGeometry width="50" height="50" relative="1" as="geometry">
            <mxPoint x="480" y="520" as="sourcePoint" />
            <mxPoint x="480" y="580" as="targetPoint" />
          </mxGeometry>
        </mxCell>
        <mxCell id="F1lBZtgdxnn6Zponnhz5-7" value="&lt;b&gt;&lt;font face=&quot;Times New Roman&quot;&gt;wrouter_enable&lt;/font&gt;&lt;/b&gt;" style="text;html=1;strokeColor=none;fillColor=none;align=center;verticalAlign=middle;whiteSpace=wrap;rounded=0;" vertex="1" parent="YZWj7jQO84EJo9lFfLPc-1">
          <mxGeometry x="80" y="640" width="40" height="20" as="geometry" />
        </mxCell>
        <mxCell id="F1lBZtgdxnn6Zponnhz5-8" value="" style="endArrow=classic;html=1;" edge="1" parent="YZWj7jQO84EJo9lFfLPc-1">
          <mxGeometry width="50" height="50" relative="1" as="geometry">
            <mxPoint x="320" y="600" as="sourcePoint" />
            <mxPoint x="440" y="600" as="targetPoint" />
          </mxGeometry>
        </mxCell>
        <mxCell id="F1lBZtgdxnn6Zponnhz5-9" value="&lt;b&gt;&lt;font face=&quot;Times New Roman&quot;&gt;wvalid[0]&lt;/font&gt;&lt;/b&gt;" style="text;html=1;strokeColor=none;fillColor=none;align=center;verticalAlign=middle;whiteSpace=wrap;rounded=0;" vertex="1" parent="YZWj7jQO84EJo9lFfLPc-1">
          <mxGeometry x="360" y="580" width="40" height="20" as="geometry" />
        </mxCell>
        <mxCell id="F1lBZtgdxnn6Zponnhz5-10" value="" style="endArrow=classic;html=1;" edge="1" parent="YZWj7jQO84EJo9lFfLPc-1">
          <mxGeometry width="50" height="50" relative="1" as="geometry">
            <mxPoint x="320" y="760" as="sourcePoint" />
            <mxPoint x="440" y="760" as="targetPoint" />
          </mxGeometry>
        </mxCell>
        <mxCell id="F1lBZtgdxnn6Zponnhz5-11" value="&lt;b&gt;&lt;font face=&quot;Times New Roman&quot;&gt;wvalid[x]&lt;/font&gt;&lt;/b&gt;" style="text;html=1;strokeColor=none;fillColor=none;align=center;verticalAlign=middle;whiteSpace=wrap;rounded=0;" vertex="1" parent="YZWj7jQO84EJo9lFfLPc-1">
          <mxGeometry x="360" y="740" width="40" height="20" as="geometry" />
        </mxCell>
        <mxCell id="F1lBZtgdxnn6Zponnhz5-12" value="" style="endArrow=none;dashed=1;html=1;dashPattern=1 3;strokeWidth=2;" edge="1" parent="YZWj7jQO84EJo9lFfLPc-1">
          <mxGeometry width="50" height="50" relative="1" as="geometry">
            <mxPoint x="380" y="730" as="sourcePoint" />
            <mxPoint x="380" y="610" as="targetPoint" />
          </mxGeometry>
        </mxCell>
        <mxCell id="F1lBZtgdxnn6Zponnhz5-13" value="" style="endArrow=classic;html=1;" edge="1" parent="YZWj7jQO84EJo9lFfLPc-1">
          <mxGeometry width="50" height="50" relative="1" as="geometry">
            <mxPoint x="40" y="700" as="sourcePoint" />
            <mxPoint x="160" y="700" as="targetPoint" />
          </mxGeometry>
        </mxCell>
        <mxCell id="F1lBZtgdxnn6Zponnhz5-14" value="&lt;b&gt;&lt;font face=&quot;Times New Roman&quot;&gt;wvalid&lt;/font&gt;&lt;/b&gt;" style="text;html=1;strokeColor=none;fillColor=none;align=center;verticalAlign=middle;whiteSpace=wrap;rounded=0;" vertex="1" parent="YZWj7jQO84EJo9lFfLPc-1">
          <mxGeometry x="80" y="680" width="40" height="20" as="geometry" />
        </mxCell>
        <mxCell id="F1lBZtgdxnn6Zponnhz5-15" style="edgeStyle=orthogonalEdgeStyle;rounded=0;orthogonalLoop=1;jettySize=auto;html=1;" edge="1" parent="YZWj7jQO84EJo9lFfLPc-1" source="F1lBZtgdxnn6Zponnhz5-16">
          <mxGeometry relative="1" as="geometry">
            <mxPoint x="720" y="660" as="targetPoint" />
          </mxGeometry>
        </mxCell>
        <mxCell id="F1lBZtgdxnn6Zponnhz5-21" style="edgeStyle=orthogonalEdgeStyle;rounded=0;orthogonalLoop=1;jettySize=auto;html=1;entryX=0;entryY=0.5;entryDx=0;entryDy=0;" edge="1" parent="YZWj7jQO84EJo9lFfLPc-1" target="F1lBZtgdxnn6Zponnhz5-20">
          <mxGeometry relative="1" as="geometry">
            <mxPoint x="610" y="560" as="targetPoint" />
            <mxPoint x="560" y="520" as="sourcePoint" />
            <Array as="points">
              <mxPoint x="560" y="640" />
            </Array>
          </mxGeometry>
        </mxCell>
        <mxCell id="F1lBZtgdxnn6Zponnhz5-16" value="" style="shape=or;whiteSpace=wrap;html=1;" vertex="1" parent="YZWj7jQO84EJo9lFfLPc-1">
          <mxGeometry x="640" y="620" width="40" height="80" as="geometry" />
        </mxCell>
        <mxCell id="F1lBZtgdxnn6Zponnhz5-18" value="&lt;b&gt;&lt;font face=&quot;Times New Roman&quot;&gt;wque_out&lt;/font&gt;&lt;/b&gt;" style="text;html=1;strokeColor=none;fillColor=none;align=center;verticalAlign=middle;whiteSpace=wrap;rounded=0;" vertex="1" parent="YZWj7jQO84EJo9lFfLPc-1">
          <mxGeometry x="490" y="520" width="40" height="20" as="geometry" />
        </mxCell>
        <mxCell id="F1lBZtgdxnn6Zponnhz5-19" value="" style="endArrow=classic;html=1;" edge="1" parent="YZWj7jQO84EJo9lFfLPc-1">
          <mxGeometry width="50" height="50" relative="1" as="geometry">
            <mxPoint x="520" y="680" as="sourcePoint" />
            <mxPoint x="640" y="680" as="targetPoint" />
          </mxGeometry>
        </mxCell>
        <mxCell id="F1lBZtgdxnn6Zponnhz5-20" value="" style="ellipse;whiteSpace=wrap;html=1;aspect=fixed;" vertex="1" parent="YZWj7jQO84EJo9lFfLPc-1">
          <mxGeometry x="630" y="635" width="10" height="10" as="geometry" />
        </mxCell>
        <mxCell id="F1lBZtgdxnn6Zponnhz5-23" value="&lt;b&gt;&lt;font face=&quot;Times New Roman&quot;&gt;wque_empty&lt;/font&gt;&lt;/b&gt;" style="text;html=1;strokeColor=none;fillColor=none;align=center;verticalAlign=middle;whiteSpace=wrap;rounded=0;" vertex="1" parent="YZWj7jQO84EJo9lFfLPc-1">
          <mxGeometry x="580" y="520" width="40" height="20" as="geometry" />
        </mxCell>
      </root>
    </mxGraphModel>
  </diagram>
</mxfile>
